<svg width="167" height="98" viewBox="0 0 167 98" fill="none" xmlns="http://www.w3.org/2000/svg">
<path d="M41.7273 97.5455C33.2727 97.5152 25.9697 95.5606 19.8182 91.6818C13.6667 87.803 8.92424 82.2121 5.59091 74.9091C2.25758 67.6061 0.606061 58.8485 0.636364 48.6364C0.666667 38.3939 2.33333 29.697 5.63636 22.5455C8.9697 15.3939 13.697 9.95454 19.8182 6.22727C25.9697 2.5 33.2727 0.63636 41.7273 0.63636C50.1818 0.63636 57.4849 2.51515 63.6364 6.27273C69.7879 10 74.5303 15.4394 77.8636 22.5909C81.197 29.7424 82.8485 38.4242 82.8182 48.6364C82.8182 58.9091 81.1515 67.697 77.8182 75C74.4849 82.303 69.7424 87.8939 63.5909 91.7727C57.4697 95.6212 50.1818 97.5455 41.7273 97.5455ZM41.7273 77C46.0909 77 49.6667 74.7273 52.4545 70.1818C55.2727 65.6061 56.6667 58.4242 56.6364 48.6364C56.6364 42.2424 56 37.0151 54.7273 32.9545C53.4545 28.8939 51.697 25.8939 49.4545 23.9545C47.2121 21.9848 44.6364 21 41.7273 21C37.3636 21 33.803 23.2121 31.0455 27.6364C28.2879 32.0606 26.8788 39.0606 26.8182 48.6364C26.7879 55.1515 27.4091 60.5151 28.6818 64.7273C29.9545 68.9091 31.7121 72 33.9545 74C36.2273 76 38.8182 77 41.7273 77ZM94.6818 95V76.8182L129.409 48.0909C131.712 46.1818 133.682 44.3939 135.318 42.7273C136.985 41.0303 138.258 39.2879 139.136 37.5C140.045 35.7121 140.5 33.7273 140.5 31.5455C140.5 29.1515 139.985 27.1061 138.955 25.4091C137.955 23.7121 136.561 22.4091 134.773 21.5C132.985 20.5606 130.924 20.0909 128.591 20.0909C126.258 20.0909 124.197 20.5606 122.409 21.5C120.652 22.4394 119.288 23.8182 118.318 25.6364C117.348 27.4545 116.864 29.6667 116.864 32.2727H92.8636C92.8636 25.7273 94.3333 20.0909 97.2727 15.3636C100.212 10.6364 104.364 7 109.727 4.45454C115.091 1.90909 121.379 0.63636 128.591 0.63636C136.045 0.63636 142.5 1.83333 147.955 4.22727C153.439 6.59091 157.667 9.92424 160.636 14.2273C163.636 18.5303 165.136 23.5758 165.136 29.3636C165.136 32.9394 164.394 36.5 162.909 40.0455C161.424 43.5606 158.758 47.4545 154.909 51.7273C151.061 56 145.591 61.0909 138.5 67L129.773 74.2727V74.8182H166.136V95H94.6818Z" fill="#02559B" fill-opacity="0.2"/>
</svg>
