<svg width="170" height="98" viewBox="0 0 170 98" fill="none" xmlns="http://www.w3.org/2000/svg">
<path d="M41.7273 97.5455C33.2727 97.5152 25.9697 95.5606 19.8182 91.6818C13.6667 87.803 8.92424 82.2121 5.59091 74.9091C2.25758 67.6061 0.606061 58.8485 0.636364 48.6364C0.666667 38.3939 2.33333 29.697 5.63636 22.5455C8.9697 15.3939 13.697 9.95454 19.8182 6.22727C25.9697 2.5 33.2727 0.63636 41.7273 0.63636C50.1818 0.63636 57.4849 2.51515 63.6364 6.27273C69.7879 10 74.5303 15.4394 77.8636 22.5909C81.197 29.7424 82.8485 38.4242 82.8182 48.6364C82.8182 58.9091 81.1515 67.697 77.8182 75C74.4849 82.303 69.7424 87.8939 63.5909 91.7727C57.4697 95.6212 50.1818 97.5455 41.7273 97.5455ZM41.7273 77C46.0909 77 49.6667 74.7273 52.4545 70.1818C55.2727 65.6061 56.6667 58.4242 56.6364 48.6364C56.6364 42.2424 56 37.0151 54.7273 32.9545C53.4545 28.8939 51.697 25.8939 49.4545 23.9545C47.2121 21.9848 44.6364 21 41.7273 21C37.3636 21 33.803 23.2121 31.0455 27.6364C28.2879 32.0606 26.8788 39.0606 26.8182 48.6364C26.7879 55.1515 27.4091 60.5151 28.6818 64.7273C29.9545 68.9091 31.7121 72 33.9545 74C36.2273 76 38.8182 77 41.7273 77ZM131.045 96.2727C123.712 96.2727 117.197 95.0152 111.5 92.5C105.833 89.9545 101.379 86.4545 98.1364 82C94.8939 77.5455 93.2576 72.4242 93.2273 66.6364H118.682C118.712 68.4242 119.258 70.0303 120.318 71.4545C121.409 72.8485 122.894 73.9394 124.773 74.7273C126.652 75.5152 128.803 75.9091 131.227 75.9091C133.561 75.9091 135.621 75.5 137.409 74.6818C139.197 73.8333 140.591 72.6667 141.591 71.1818C142.591 69.697 143.076 68 143.045 66.0909C143.076 64.2121 142.5 62.5455 141.318 61.0909C140.167 59.6364 138.545 58.5 136.455 57.6818C134.364 56.8636 131.955 56.4545 129.227 56.4545H119.773V39H129.227C131.742 39 133.955 38.5909 135.864 37.7727C137.803 36.9545 139.303 35.8182 140.364 34.3636C141.455 32.9091 141.985 31.2424 141.955 29.3636C141.985 27.5455 141.545 25.9394 140.636 24.5455C139.727 23.1515 138.455 22.0606 136.818 21.2727C135.212 20.4848 133.348 20.0909 131.227 20.0909C128.924 20.0909 126.864 20.5 125.045 21.3182C123.258 22.1364 121.848 23.2727 120.818 24.7273C119.788 26.1818 119.258 27.8485 119.227 29.7273H95.0455C95.0758 24.0303 96.6364 19 99.7273 14.6364C102.848 10.2727 107.121 6.84848 112.545 4.36363C117.97 1.87878 124.197 0.63636 131.227 0.63636C138.106 0.63636 144.182 1.80303 149.455 4.13636C154.758 6.46969 158.894 9.68182 161.864 13.7727C164.864 17.8333 166.348 22.4848 166.318 27.7273C166.379 32.9394 164.591 37.2121 160.955 40.5455C157.348 43.8788 152.773 45.8485 147.227 46.4545V47.1818C154.742 48 160.394 50.303 164.182 54.0909C167.97 57.8485 169.833 62.5758 169.773 68.2727C169.803 73.7273 168.167 78.5606 164.864 82.7727C161.591 86.9848 157.03 90.2879 151.182 92.6818C145.364 95.0758 138.652 96.2727 131.045 96.2727Z" fill="#02559B" fill-opacity="0.2"/>
</svg>
