<svg width="170" height="98" viewBox="0 0 170 98" fill="none" xmlns="http://www.w3.org/2000/svg">
<path d="M41.7273 97.5455C33.2727 97.5152 25.9697 95.5606 19.8182 91.6818C13.6667 87.803 8.92424 82.2121 5.59091 74.9091C2.25758 67.6061 0.606061 58.8485 0.636364 48.6364C0.666667 38.3939 2.33333 29.697 5.63636 22.5455C8.9697 15.3939 13.697 9.95454 19.8182 6.22727C25.9697 2.5 33.2727 0.63636 41.7273 0.63636C50.1818 0.63636 57.4849 2.51515 63.6364 6.27273C69.7879 10 74.5303 15.4394 77.8636 22.5909C81.197 29.7424 82.8485 38.4242 82.8182 48.6364C82.8182 58.9091 81.1515 67.697 77.8182 75C74.4849 82.303 69.7424 87.8939 63.5909 91.7727C57.4697 95.6212 50.1818 97.5455 41.7273 97.5455ZM41.7273 77C46.0909 77 49.6667 74.7273 52.4545 70.1818C55.2727 65.6061 56.6667 58.4242 56.6364 48.6364C56.6364 42.2424 56 37.0151 54.7273 32.9545C53.4545 28.8939 51.697 25.8939 49.4545 23.9545C47.2121 21.9848 44.6364 21 41.7273 21C37.3636 21 33.803 23.2121 31.0455 27.6364C28.2879 32.0606 26.8788 39.0606 26.8182 48.6364C26.7879 55.1515 27.4091 60.5151 28.6818 64.7273C29.9545 68.9091 31.7121 72 33.9545 74C36.2273 76 38.8182 77 41.7273 77ZM131.955 96.2727C124.803 96.2727 118.455 95.0152 112.909 92.5C107.394 89.9545 103.045 86.4545 99.8636 82C96.7121 77.5455 95.1061 72.4242 95.0455 66.6364H119.591C119.682 69.8485 120.924 72.4091 123.318 74.3182C125.742 76.2273 128.621 77.1818 131.955 77.1818C134.53 77.1818 136.803 76.6364 138.773 75.5455C140.742 74.4242 142.288 72.8485 143.409 70.8182C144.53 68.7879 145.076 66.4242 145.045 63.7273C145.076 61 144.53 58.6364 143.409 56.6364C142.288 54.6061 140.742 53.0455 138.773 51.9545C136.803 50.8333 134.53 50.2727 131.955 50.2727C129.288 50.2727 126.818 50.9242 124.545 52.2273C122.303 53.5 120.652 55.2727 119.591 57.5455L97.4091 53.1818L101.045 1.90909H163.591V22.0909H121.773L119.955 42.6364H120.5C121.955 39.8182 124.47 37.4848 128.045 35.6364C131.621 33.7576 135.773 32.8182 140.5 32.8182C146.045 32.8182 150.985 34.1061 155.318 36.6818C159.682 39.2576 163.121 42.8182 165.636 47.3636C168.182 51.8788 169.439 57.0909 169.409 63C169.439 69.4848 167.894 75.2424 164.773 80.2727C161.682 85.2727 157.333 89.197 151.727 92.0455C146.121 94.8636 139.53 96.2727 131.955 96.2727Z" fill="#02559B" fill-opacity="0.2"/>
</svg>
