<svg width="171" height="98" viewBox="0 0 171 98" fill="none" xmlns="http://www.w3.org/2000/svg">
<path d="M41.7273 97.5455C33.2727 97.5152 25.9697 95.5606 19.8182 91.6818C13.6667 87.803 8.92424 82.2121 5.59091 74.9091C2.25758 67.6061 0.606061 58.8485 0.636364 48.6364C0.666667 38.3939 2.33333 29.697 5.63636 22.5455C8.9697 15.3939 13.697 9.95454 19.8182 6.22727C25.9697 2.5 33.2727 0.63636 41.7273 0.63636C50.1818 0.63636 57.4849 2.51515 63.6364 6.27273C69.7879 10 74.5303 15.4394 77.8636 22.5909C81.197 29.7424 82.8485 38.4242 82.8182 48.6364C82.8182 58.9091 81.1515 67.697 77.8182 75C74.4849 82.303 69.7424 87.8939 63.5909 91.7727C57.4697 95.6212 50.1818 97.5455 41.7273 97.5455ZM41.7273 77C46.0909 77 49.6667 74.7273 52.4545 70.1818C55.2727 65.6061 56.6667 58.4242 56.6364 48.6364C56.6364 42.2424 56 37.0151 54.7273 32.9545C53.4545 28.8939 51.697 25.8939 49.4545 23.9545C47.2121 21.9848 44.6364 21 41.7273 21C37.3636 21 33.803 23.2121 31.0455 27.6364C28.2879 32.0606 26.8788 39.0606 26.8182 48.6364C26.7879 55.1515 27.4091 60.5151 28.6818 64.7273C29.9545 68.9091 31.7121 72 33.9545 74C36.2273 76 38.8182 77 41.7273 77ZM133.591 96.2727C128.167 96.2727 123.015 95.4242 118.136 93.7273C113.288 92 108.985 89.2879 105.227 85.5909C101.47 81.8939 98.5152 77.0758 96.3636 71.1364C94.2424 65.197 93.197 58 93.2273 49.5455C93.2576 42 94.2273 35.2121 96.1364 29.1818C98.0758 23.1515 100.818 18.0151 104.364 13.7727C107.939 9.5303 112.212 6.28787 117.182 4.04545C122.152 1.77272 127.682 0.63636 133.773 0.63636C140.621 0.63636 146.652 1.95454 151.864 4.5909C157.076 7.22727 161.227 10.7576 164.318 15.1818C167.439 19.5758 169.258 24.4242 169.773 29.7273H144.864C144.288 27.0909 142.955 25.1667 140.864 23.9545C138.803 22.7121 136.439 22.0909 133.773 22.0909C128.47 22.0909 124.576 24.3939 122.091 29C119.636 33.6061 118.379 39.6667 118.318 47.1818H118.864C120.045 44.3333 121.833 41.8939 124.227 39.8636C126.621 37.8333 129.409 36.2727 132.591 35.1818C135.773 34.0909 139.136 33.5455 142.682 33.5455C148.318 33.5455 153.242 34.8182 157.455 37.3636C161.697 39.9091 165 43.3939 167.364 47.8182C169.727 52.2424 170.894 57.303 170.864 63C170.894 69.6667 169.318 75.5 166.136 80.5C162.985 85.5 158.606 89.3788 153 92.1364C147.394 94.8939 140.924 96.2727 133.591 96.2727ZM133.409 77.1818C135.924 77.1818 138.152 76.6061 140.091 75.4545C142.061 74.303 143.591 72.7273 144.682 70.7273C145.803 68.7273 146.348 66.4545 146.318 63.9091C146.348 61.3333 145.803 59.0606 144.682 57.0909C143.591 55.0909 142.061 53.5152 140.091 52.3636C138.152 51.2121 135.924 50.6364 133.409 50.6364C131.561 50.6364 129.848 50.9697 128.273 51.6364C126.727 52.2727 125.379 53.197 124.227 54.4091C123.076 55.5909 122.167 57 121.5 58.6364C120.864 60.2424 120.53 62 120.5 63.9091C120.53 66.4545 121.106 68.7273 122.227 70.7273C123.348 72.7273 124.879 74.303 126.818 75.4545C128.758 76.6061 130.955 77.1818 133.409 77.1818Z" fill="#02559B" fill-opacity="0.2"/>
</svg>
