<svg width="172" height="98" viewBox="0 0 172 98" fill="none" xmlns="http://www.w3.org/2000/svg">
<path d="M41.7273 97.5455C33.2727 97.5152 25.9697 95.5606 19.8182 91.6818C13.6667 87.803 8.92424 82.2121 5.59091 74.9091C2.25758 67.6061 0.606061 58.8485 0.636364 48.6364C0.666667 38.3939 2.33333 29.697 5.63636 22.5455C8.9697 15.3939 13.697 9.95454 19.8182 6.22727C25.9697 2.5 33.2727 0.63636 41.7273 0.63636C50.1818 0.63636 57.4849 2.51515 63.6364 6.27273C69.7879 10 74.5303 15.4394 77.8636 22.5909C81.197 29.7424 82.8485 38.4242 82.8182 48.6364C82.8182 58.9091 81.1515 67.697 77.8182 75C74.4849 82.303 69.7424 87.8939 63.5909 91.7727C57.4697 95.6212 50.1818 97.5455 41.7273 97.5455ZM41.7273 77C46.0909 77 49.6667 74.7273 52.4545 70.1818C55.2727 65.6061 56.6667 58.4242 56.6364 48.6364C56.6364 42.2424 56 37.0151 54.7273 32.9545C53.4545 28.8939 51.697 25.8939 49.4545 23.9545C47.2121 21.9848 44.6364 21 41.7273 21C37.3636 21 33.803 23.2121 31.0455 27.6364C28.2879 32.0606 26.8788 39.0606 26.8182 48.6364C26.7879 55.1515 27.4091 60.5151 28.6818 64.7273C29.9545 68.9091 31.7121 72 33.9545 74C36.2273 76 38.8182 77 41.7273 77ZM132.682 96.2727C125.167 96.2727 118.455 95.1061 112.545 92.7727C106.667 90.4394 102.03 87.2727 98.6364 83.2727C95.2727 79.2727 93.5909 74.7576 93.5909 69.7273C93.5909 65.8788 94.5455 62.3636 96.4545 59.1818C98.3939 56 101 53.3636 104.273 51.2727C107.545 49.1515 111.197 47.7879 115.227 47.1818V46.4545C109.924 45.5455 105.561 43.197 102.136 39.4091C98.7424 35.5909 97.0455 31.0909 97.0455 25.9091C97.0455 21.0303 98.5909 16.697 101.682 12.9091C104.773 9.09091 109 6.09091 114.364 3.90909C119.727 1.72727 125.833 0.63636 132.682 0.63636C139.53 0.63636 145.636 1.74242 151 3.95454C156.364 6.13636 160.591 9.13636 163.682 12.9545C166.773 16.7424 168.318 21.0606 168.318 25.9091C168.318 31.1212 166.591 35.6212 163.136 39.4091C159.682 43.197 155.348 45.5455 150.136 46.4545V47.1818C154.136 47.7879 157.773 49.1515 161.045 51.2727C164.318 53.3636 166.924 56 168.864 59.1818C170.803 62.3636 171.773 65.8788 171.773 69.7273C171.773 74.7576 170.076 79.2727 166.682 83.2727C163.318 87.2727 158.682 90.4394 152.773 92.7727C146.894 95.1061 140.197 96.2727 132.682 96.2727ZM132.682 78.8182C135.076 78.8182 137.197 78.3333 139.045 77.3636C140.894 76.3939 142.348 75.0606 143.409 73.3636C144.5 71.6364 145.045 69.697 145.045 67.5455C145.045 65.3939 144.5 63.4848 143.409 61.8182C142.348 60.1515 140.894 58.8485 139.045 57.9091C137.197 56.9394 135.076 56.4545 132.682 56.4545C130.318 56.4545 128.197 56.9394 126.318 57.9091C124.47 58.8485 123 60.1515 121.909 61.8182C120.848 63.4848 120.318 65.3939 120.318 67.5455C120.318 69.697 120.848 71.6212 121.909 73.3182C123 75.0152 124.47 76.3636 126.318 77.3636C128.197 78.3333 130.318 78.8182 132.682 78.8182ZM132.682 39C134.803 39 136.682 38.5606 138.318 37.6818C139.955 36.803 141.242 35.5909 142.182 34.0455C143.121 32.5 143.591 30.7576 143.591 28.8182C143.591 26.8788 143.121 25.1667 142.182 23.6818C141.242 22.1667 139.955 20.9848 138.318 20.1364C136.682 19.2576 134.803 18.8182 132.682 18.8182C130.591 18.8182 128.712 19.2576 127.045 20.1364C125.409 20.9848 124.121 22.1667 123.182 23.6818C122.242 25.1667 121.773 26.8788 121.773 28.8182C121.773 30.7576 122.242 32.5 123.182 34.0455C124.121 35.5606 125.409 36.7727 127.045 37.6818C128.712 38.5606 130.591 39 132.682 39Z" fill="#02559B" fill-opacity="0.2"/>
</svg>
