<svg width="172" height="98" viewBox="0 0 172 98" fill="none" xmlns="http://www.w3.org/2000/svg">
<path d="M41.7273 97.5455C33.2727 97.5152 25.9697 95.5606 19.8182 91.6818C13.6667 87.803 8.92424 82.2121 5.59091 74.9091C2.25758 67.6061 0.606061 58.8485 0.636364 48.6364C0.666667 38.3939 2.33333 29.697 5.63636 22.5455C8.9697 15.3939 13.697 9.95454 19.8182 6.22727C25.9697 2.5 33.2727 0.63636 41.7273 0.63636C50.1818 0.63636 57.4849 2.51515 63.6364 6.27273C69.7879 10 74.5303 15.4394 77.8636 22.5909C81.197 29.7424 82.8485 38.4242 82.8182 48.6364C82.8182 58.9091 81.1515 67.697 77.8182 75C74.4849 82.303 69.7424 87.8939 63.5909 91.7727C57.4697 95.6212 50.1818 97.5455 41.7273 97.5455ZM41.7273 77C46.0909 77 49.6667 74.7273 52.4545 70.1818C55.2727 65.6061 56.6667 58.4242 56.6364 48.6364C56.6364 42.2424 56 37.0151 54.7273 32.9545C53.4545 28.8939 51.697 25.8939 49.4545 23.9545C47.2121 21.9848 44.6364 21 41.7273 21C37.3636 21 33.803 23.2121 31.0455 27.6364C28.2879 32.0606 26.8788 39.0606 26.8182 48.6364C26.7879 55.1515 27.4091 60.5151 28.6818 64.7273C29.9545 68.9091 31.7121 72 33.9545 74C36.2273 76 38.8182 77 41.7273 77ZM131.045 0.63636C136.47 0.63636 141.606 1.5 146.455 3.22727C151.303 4.92424 155.591 7.60606 159.318 11.2727C163.076 14.9394 166.015 19.7273 168.136 25.6364C170.288 31.5151 171.379 38.6364 171.409 47C171.439 54.6364 170.485 61.5 168.545 67.5909C166.636 73.6515 163.894 78.8182 160.318 83.0909C156.773 87.3636 152.5 90.6364 147.5 92.9091C142.53 95.1515 136.985 96.2727 130.864 96.2727C123.985 96.2727 117.939 94.9545 112.727 92.3182C107.515 89.6818 103.364 86.1364 100.273 81.6818C97.1818 77.2273 95.3788 72.2727 94.8636 66.8182H119.773C120.379 69.6364 121.712 71.6818 123.773 72.9545C125.833 74.197 128.197 74.8182 130.864 74.8182C136.197 74.8182 140.091 72.5152 142.545 67.9091C145.03 63.2727 146.288 57.0909 146.318 49.3636H145.773C144.591 52.2121 142.803 54.6515 140.409 56.6818C138.015 58.7121 135.227 60.2727 132.045 61.3636C128.864 62.4545 125.5 63 121.955 63C116.348 63 111.439 61.7424 107.227 59.2273C103.015 56.6818 99.7273 53.2121 97.3636 48.8182C95 44.3939 93.803 39.3636 93.7727 33.7273C93.7424 27.1212 95.303 21.3333 98.4545 16.3636C101.606 11.3939 105.985 7.5303 111.591 4.77273C117.197 2.01515 123.682 0.63636 131.045 0.63636ZM131.227 19.7273C128.712 19.7273 126.47 20.303 124.5 21.4545C122.561 22.6061 121.03 24.1667 119.909 26.1364C118.818 28.1061 118.288 30.3333 118.318 32.8182C118.348 35.303 118.909 37.5303 120 39.5C121.121 41.4697 122.636 43.0303 124.545 44.1818C126.485 45.3333 128.712 45.9091 131.227 45.9091C133.076 45.9091 134.788 45.5909 136.364 44.9545C137.939 44.2879 139.303 43.3636 140.455 42.1818C141.636 40.9697 142.545 39.5758 143.182 38C143.848 36.3939 144.167 34.6667 144.136 32.8182C144.106 30.3333 143.53 28.1061 142.409 26.1364C141.288 24.1667 139.758 22.6061 137.818 21.4545C135.879 20.303 133.682 19.7273 131.227 19.7273Z" fill="#02559B" fill-opacity="0.2"/>
</svg>
