<svg width="1159" height="542" viewBox="0 0 1159 542" fill="none" xmlns="http://www.w3.org/2000/svg">
<path d="M704.835 149.839V175.028H604.584V149.839H704.835ZM633.803 103.492H663.525V287.872C663.525 296.268 664.743 302.566 667.178 306.764C669.697 310.878 672.887 313.649 676.749 315.076C680.696 316.419 684.852 317.091 689.218 317.091C692.492 317.091 695.179 316.923 697.278 316.587C699.377 316.167 701.056 315.832 702.316 315.58L708.361 342.28C706.346 343.035 703.533 343.791 699.923 344.547C696.313 345.386 691.737 345.806 686.195 345.806C677.799 345.806 669.571 344.001 661.51 340.39C653.534 336.78 646.901 331.281 641.611 323.892C636.406 316.503 633.803 307.184 633.803 295.933V103.492ZM828.573 347.317C809.934 347.317 793.855 343.203 780.337 334.975C766.903 326.663 756.534 315.076 749.229 300.215C742.009 285.269 738.398 267.889 738.398 248.074C738.398 228.259 742.009 210.795 749.229 195.682C756.534 180.485 766.694 168.646 779.708 160.166C792.806 151.602 808.087 147.32 825.551 147.32C835.626 147.32 845.576 148.999 855.399 152.358C865.223 155.716 874.165 161.174 882.225 168.73C890.285 176.203 896.709 186.11 901.494 198.453C906.28 210.795 908.673 225.992 908.673 244.044V256.638H759.557V230.946H878.447C878.447 220.031 876.264 210.292 871.898 201.727C867.616 193.163 861.486 186.404 853.51 181.451C845.618 176.497 836.298 174.02 825.551 174.02C813.712 174.02 803.469 176.959 794.821 182.836C786.257 188.629 779.666 196.186 775.048 205.506C770.43 214.825 768.121 224.817 768.121 235.48V252.608C768.121 267.218 770.64 279.602 775.677 289.761C780.799 299.837 787.894 307.519 796.962 312.809C806.03 318.015 816.567 320.617 828.573 320.617C836.382 320.617 843.435 319.526 849.732 317.343C856.113 315.076 861.612 311.717 866.23 307.267C870.848 302.734 874.417 297.108 876.935 290.391L905.65 298.451C902.628 308.191 897.548 316.755 890.411 324.144C883.275 331.448 874.459 337.158 863.963 341.272C853.468 345.302 841.672 347.317 828.573 347.317ZM983.609 226.916V343.287H953.887V149.839H982.601V180.065H985.12C989.654 170.242 996.539 162.349 1005.77 156.388C1015.01 150.343 1026.93 147.32 1041.54 147.32C1054.64 147.32 1066.1 150.007 1075.93 155.38C1085.75 160.67 1093.39 168.73 1098.85 179.561C1104.3 190.309 1107.03 203.91 1107.03 220.367V343.287H1077.31V222.382C1077.31 207.185 1073.36 195.346 1065.47 186.866C1057.58 178.302 1046.75 174.02 1032.98 174.02C1023.49 174.02 1015.01 176.077 1007.54 180.191C1000.15 184.305 994.314 190.309 990.032 198.201C985.75 206.093 983.609 215.665 983.609 226.916Z" fill="#04263F"/>
<path d="M639.625 449.769L639.328 428.087H642.892L692.792 377.296H714.474L661.308 431.057H659.823L639.625 449.769ZM623.289 491.352V339.277H640.813V491.352H623.289ZM695.762 491.352L651.209 434.918L663.684 422.74L718.039 491.352H695.762ZM808.909 444.72V377.296H826.433V491.352H808.909V472.046H807.721C805.047 477.838 800.889 482.763 795.246 486.822C789.602 490.832 782.474 492.837 773.86 492.837C766.732 492.837 760.395 491.278 754.851 488.159C749.306 484.991 744.95 480.239 741.782 473.902C738.614 467.516 737.029 459.472 737.029 449.769V377.296H754.554V448.581C754.554 456.898 756.88 463.531 761.534 468.481C766.237 473.432 772.226 475.907 779.504 475.907C783.86 475.907 788.29 474.793 792.795 472.565C797.35 470.338 801.161 466.922 804.231 462.318C807.349 457.714 808.909 451.848 808.909 444.72ZM858.53 491.352V377.296H875.46V394.523H876.648C878.727 388.88 882.489 384.301 887.935 380.786C893.38 377.271 899.519 375.514 906.35 375.514C907.637 375.514 909.246 375.539 911.177 375.588C913.107 375.638 914.568 375.712 915.558 375.811V393.632C914.964 393.484 913.602 393.261 911.474 392.964C909.395 392.617 907.192 392.444 904.865 392.444C899.321 392.444 894.37 393.607 890.014 395.934C885.707 398.211 882.291 401.379 879.767 405.439C877.292 409.448 876.054 414.028 876.054 419.176V491.352H858.53ZM951.089 534.123C948.119 534.123 945.47 533.876 943.144 533.381C940.817 532.935 939.208 532.489 938.317 532.044L942.772 516.599C947.03 517.688 950.792 518.084 954.059 517.787C957.326 517.49 960.222 516.03 962.747 513.406C965.321 510.832 967.673 506.649 969.801 500.857L973.069 491.946L930.892 377.296H949.901L981.385 468.184H982.573L1014.06 377.296H1033.07L984.652 507.985C982.474 513.876 979.776 518.752 976.559 522.614C973.341 526.524 969.603 529.42 965.346 531.301C961.138 533.183 956.386 534.123 951.089 534.123ZM1099.93 493.728C1088.94 493.728 1079.46 491.303 1071.49 486.451C1063.57 481.55 1057.46 474.719 1053.15 465.957C1048.9 457.145 1046.77 446.898 1046.77 435.215C1046.77 423.532 1048.9 413.235 1053.15 404.325C1057.46 395.365 1063.45 388.385 1071.12 383.385C1078.85 378.335 1087.85 375.811 1098.15 375.811C1104.09 375.811 1109.96 376.801 1115.75 378.781C1121.54 380.761 1126.81 383.979 1131.57 388.434C1136.32 392.84 1140.11 398.681 1142.93 405.958C1145.75 413.235 1147.16 422.196 1147.16 432.839V440.264H1059.24V425.116H1129.34C1129.34 418.681 1128.05 412.938 1125.48 407.889C1122.95 402.84 1119.34 398.855 1114.64 395.934C1109.98 393.013 1104.49 391.553 1098.15 391.553C1091.17 391.553 1085.13 393.286 1080.03 396.751C1074.98 400.167 1071.1 404.622 1068.38 410.117C1065.65 415.612 1064.29 421.503 1064.29 427.79V437.888C1064.29 446.502 1065.78 453.804 1068.75 459.794C1071.77 465.734 1075.95 470.264 1081.3 473.382C1086.64 476.451 1092.85 477.986 1099.93 477.986C1104.54 477.986 1108.7 477.343 1112.41 476.055C1116.17 474.719 1119.41 472.739 1122.14 470.115C1124.86 467.442 1126.96 464.125 1128.45 460.165L1145.38 464.917C1143.6 470.66 1140.6 475.709 1136.39 480.065C1132.19 484.372 1126.99 487.738 1120.8 490.164C1114.61 492.54 1107.66 493.728 1099.93 493.728Z" fill="#9B6610"/>
<path d="M786.99 396.86C786.62 396.86 786.26 396.86 785.89 396.83C796.58 398.66 807.33 397.9 817.99 394.64C807.86 396.1 797.51 396.86 786.99 396.86Z" fill="white"/>
<path d="M515.16 375.04C511.83 377.37 507.99 378.58 503.75 378.67C488.57 378.98 475.81 378.75 462.92 376.52C461.53 376.27 460.12 376.01 458.58 375.69C457.15 375.4 455.72 375.07 454.3 374.75C454.29 374.91 454.27 375.05 454.26 375.21C453.96 377.84 451.93 379.66 449.19 379.77C447.05 379.82 444.24 379.9 441.42 379.9C437.4 379.9 432.09 379.89 426.71 379.8C426.32 379.8 426.16 379.84 426.15 379.84C424.74 381.37 423.05 382.34 421.03 382.77C408.28 391.91 393.31 398.15 377.07 400.48C372.35 401.16 367.53 401.51 362.63 401.51C362.46 401.51 362.29 401.51 362.12 401.5C306.97 401.24 262.34 356.45 262.34 301.22C262.34 245.83 307.25 200.94 362.63 200.94C391.24 200.94 417.05 212.91 435.31 232.13C437.29 228.83 439.54 225.83 442.06 223.17C444.31 220.77 446.79 218.6 449.17 216.5C449.72 216.03 450.27 215.54 450.82 215.07C451.92 214.09 453.06 213.18 454.16 212.32C454.24 212.25 454.32 212.19 454.4 212.12C453.92 211.92 453.4 211.66 452.92 211.33C451.06 210.1 449.95 208.76 449.5 207.27C447.85 201.86 447.8 196.99 449.3 192.41C451.8 184.8 458.43 179.97 467.04 179.45C469.49 179.32 471.93 179.49 474.3 179.97C477.68 180.66 480.97 182.01 484.06 183.97C485.71 185.02 487.27 186.18 488.78 187.38C457.68 152.95 412.7 131.31 362.64 131.31C268.81 131.31 192.72 207.37 192.72 301.2C192.72 395.05 268.8 471.12 362.64 471.12C430.17 471.12 488.49 431.73 515.88 374.67L515.16 375.04ZM529.72 270.39C529.33 270.39 528.92 270.35 528.53 270.31C528.82 270.78 529.43 271.76 530.18 272.98C530.04 272.12 529.88 271.25 529.72 270.39Z" fill="url(#paint0_linear_27_5)"/>
<path d="M164.4 136.23V471.14H94.78V273.36C68.16 292.88 35.65 304.83 0.400024 306.01V236.33C53.03 233.28 94.78 189.63 94.78 136.24V131.34H164.33C164.38 132.95 164.4 134.59 164.4 136.23Z" fill="url(#paint1_linear_27_5)"/>
<path d="M542.53 301.75C541.8 300.23 540.93 298.76 540.01 297.35C537.73 293.81 534.95 290.71 531.98 287.84C529.96 285.85 527.84 283.98 525.71 282.12C525.12 281.62 524.64 281.01 524.1 280.46C524.2 280.34 524.3 280.25 524.39 280.15C527.15 281.11 529.37 282.98 531.71 284.67C532.4 285.18 533.11 285.67 533.85 286.1C533.68 285.41 533.4 284.79 533.06 284.23C532.5 283.3 531.93 282.38 531.36 281.45C528.4 276.62 525.43 271.77 522.48 266.94C522.13 266.34 521.92 265.68 521.5 264.73C522.88 265.31 523.81 265.76 524.8 266.08C525.8 266.41 526.82 266.67 527.87 266.83C528.32 266.9 528.71 266.95 529.08 266.99C532.18 267.28 532.71 266.4 532.72 262.63C532.73 258.15 532.76 253.67 532.76 249.19C532.76 248.17 533.17 247.67 534.16 247.36C535.98 246.78 537.78 246.08 539.56 245.38C540.52 245.01 541.53 244.54 541.49 243.32C541.44 242.04 540.32 241.64 539.3 241.39C538.06 241.09 536.77 240.66 535.53 240.73C531.31 240.99 527.09 241.45 522.88 241.83C522.55 241.87 522.21 241.88 521.87 241.9C521.56 241.91 521.24 241.91 520.91 241.93C521.03 241.34 521.16 240.82 521.28 240.32C521.28 240.32 521.28 240.32 521.28 240.31C521.38 239.81 521.48 239.35 521.52 238.88C521.62 237.88 521.65 236.85 521.49 235.88C521.16 233.85 519.81 232.78 518.23 232.92C517.58 232.99 516.88 233.26 516.19 233.76C514.46 235.04 513.41 236.77 513.03 238.9C512.49 241.78 512.89 242.69 515.32 244.28C515.54 244.41 515.74 244.58 516.09 244.86C513.48 247.24 510.56 249.38 510.76 253.51C510.05 253.37 509.59 253.31 509.19 253.18C506.87 252.37 504.61 252.56 502.34 253.34C501.21 253.72 500.06 254.03 498.89 254.24C491.32 255.62 483.71 255.35 476.07 254.76C474.12 254.59 472.91 253.62 472.18 252.02C471.64 250.84 471.28 249.53 471.08 248.23C470.65 245.48 470.28 242.71 470.07 239.94C469.9 237.63 469.45 235.15 470.11 233.04C470.91 230.51 470.37 228.55 469.35 226.44C469.26 226.23 469.18 226.01 469.09 225.8C468.06 223.26 468.08 223.19 470.07 221.24C470.16 221.14 470.27 221.06 470.36 220.96C471.77 219.58 473.28 218.76 475.21 220C475.43 220.14 475.72 220.21 475.98 220.29C478.04 220.93 479.35 220.36 480.08 218.3C480.49 217.11 480.68 215.82 480.89 214.57C481.2 212.74 481.64 210.97 483 209.62C483.81 208.82 483.93 208.09 483.33 207.09C482.1 204.99 481.65 202.79 482.32 200.37C482.57 199.45 483 198.94 483.91 198.73C486.08 198.23 488.27 197.76 490.43 197.21C491.37 196.96 492.28 196.56 493.39 196.15C492.68 195.32 492.25 194.64 491.66 194.17C488.56 191.69 485.58 189.01 482.24 186.9C477.73 184.06 472.69 182.59 467.25 182.9C460.11 183.33 454.61 187.28 452.54 193.52C451.13 197.82 451.48 202.11 452.76 206.33C453.02 207.21 453.98 207.99 454.82 208.54C455.71 209.14 456.84 209.38 457.83 209.84C459.3 210.51 459.53 212.36 458.29 213.39C456.57 214.83 454.75 216.15 453.09 217.65C450.18 220.22 447.2 222.72 444.55 225.54C441.89 228.37 439.62 231.47 437.71 234.79C436.43 236.99 435.3 239.3 434.3 241.67C430.57 250.55 425.76 259.05 425.04 269.04C424.53 276.18 423.4 283.29 423.89 290.5C424.24 295.49 427.35 298.27 432.31 297.89C435.05 297.68 437.76 297.29 440.48 296.99C440.79 296.96 441.1 297.02 441.41 297.03C441.45 297.2 441.48 297.36 441.5 297.51C440.02 298.02 438.55 298.62 437.05 299.06C433.28 300.16 429.44 301.44 425.47 300.71C411.43 298.09 397.38 295.37 383.37 292.58C380.33 291.98 377.41 290.86 374.4 290.12C371.44 289.39 369.78 290.07 368.35 292.74C367.55 294.25 366.95 295.91 366.59 297.59C366.04 300.17 366.51 301.13 368.91 302.36C370.93 303.39 373.1 304.14 375.2 305.02C375.91 305.32 376.61 305.64 377.45 305.99C377.14 306.23 377.07 306.33 376.99 306.33C371.55 306.28 366.12 306.33 360.69 306.09C357.87 305.96 355.5 304.58 353.86 302.15C354.02 302.03 354.1 301.93 354.16 301.93C355.63 301.96 357.08 301.98 358.55 302C361.44 302.04 362.2 301.38 362.61 298.57C362.66 298.29 362.68 298.02 362.73 297.74C363.63 291.14 364.55 284.54 365.45 277.92C365.66 276.35 366.03 275.12 367.9 274.63C369.43 274.24 369.85 273.18 369.45 271.62C369.15 270.44 368.69 269.28 368.3 268.11C366.79 263.58 363.52 261.18 358.88 261.05C351.81 260.85 344.72 260.93 337.63 261.05C334.63 261.1 331.94 262.16 330.33 264.93C329.26 266.79 328.35 268.74 327.41 270.67C326.79 271.95 327 273.12 328.2 273.93C329.2 274.61 329.44 275.48 329.35 276.63C328.89 283.01 328.47 289.4 328.04 295.78C327.82 299.03 328.49 299.84 331.73 300.18C333.49 300.38 335.24 300.59 337 300.81C336.21 301.12 335.45 301.18 334.69 301.27C333.26 301.41 332.45 302.15 332.38 303.34C332.3 304.56 333.11 305.48 334.55 305.7C335.45 305.84 336.36 305.87 337.27 305.94C340.19 306.1 343.11 306.25 346.03 306.45C348.6 306.62 349.66 308.22 348.6 310.48C347.53 312.73 346.32 314.95 345.06 317.12C344.01 318.95 342.32 319.83 340.2 319.96C338.05 320.09 335.92 320.3 333.77 320.51C331.96 320.69 330.8 321.49 330.55 322.78C330.22 324.37 331.26 325.2 332.42 325.95C333.83 326.87 335.25 327.8 336.66 328.71C337.46 329.22 337.71 329.77 337.28 330.75C336.43 332.7 335.73 334.75 334.94 336.74C332.4 342.95 329.86 349.17 327.28 355.37C326.77 356.56 327.25 357.35 328.14 357.92C329.03 358.48 329.95 358.13 330.6 357.4C331.25 356.65 331.81 355.79 332.34 354.95C335.61 349.83 338.9 344.71 342.15 339.58C345.6 334.12 350.56 330.53 356.38 327.96C357.59 327.44 358.7 327.44 359.88 328.16C362.29 329.64 364.77 331 367.22 332.44C367.63 332.66 367.97 332.99 368.66 333.53C367.19 333.67 366.17 333.77 365.15 333.86C349.64 335.09 336.78 347.48 335.47 362.94C334.34 376.13 339.49 386.7 350.74 393.61C361.9 400.47 373.47 400.21 384.72 393.33C389.11 390.64 392.7 387.08 395.19 382.51C395.67 381.62 395.99 380.64 396.47 379.52C394.2 379.28 392.21 379.01 390.22 378.87C388.54 378.75 386.85 378.71 385.16 378.78C384.66 378.81 384.1 379.24 383.72 379.64C381.44 382.08 378.85 384.05 375.79 385.43C367.97 388.93 358.59 386.91 352.42 380.43C346.29 373.97 345.06 364.97 349.3 356.82C352.43 350.79 357.3 347.23 364.09 346.04C369.03 345.18 373.52 346.24 377.88 348.29C379.84 349.21 381.18 350.91 382.49 352.63C382.07 352.64 381.7 352.6 381.42 352.43C379.14 351.08 376.69 350.64 374.04 351.02C373.24 351.14 372.4 350.97 371.59 351.01C368.76 351.14 365.93 351.3 363.11 351.48C361.83 351.56 360.84 352.2 360.31 353.39C358.63 357.08 356.83 360.73 355.37 364.51C353.98 368.11 355.28 371.66 356.96 374.75C358.53 377.62 361.32 379.62 364.13 381.42C364.93 381.92 365.49 381.75 366.16 381.09C367.29 380 368.54 379.05 369.74 378.02C370.02 377.78 370.34 377.54 370.46 377.22C370.81 376.32 371.44 376.24 372.31 376.3C387.35 377.43 402.39 378.49 417.43 379.65C419.89 379.85 421.96 379.41 423.65 377.58C424.48 376.68 425.51 376.44 426.73 376.45C427.46 376.46 428.2 376.48 428.93 376.48C433.1 376.55 437.25 376.55 441.4 376.55C443.97 376.55 446.52 376.5 449.08 376.42C450.05 376.39 450.76 375.94 450.87 374.89C450.99 373.88 450.49 373.24 449.56 372.9C448.66 372.59 447.73 372.31 446.85 371.93C444.92 371.1 443 370.27 441.13 369.34C440.54 369.06 440.08 368.5 439.56 368.06C439.63 367.97 439.69 367.88 439.76 367.78C440.38 367.94 440.97 368.15 441.58 368.29C448.88 369.97 456.12 371.96 463.48 373.23C476.76 375.54 490.23 375.63 503.67 375.34C509.32 375.22 513.89 372.77 517.36 368.36C518.5 366.89 519.52 365.29 520.4 363.66C520.82 362.87 521.23 362.09 521.62 361.29C523.36 357.81 524.89 354.22 526.66 350.78C532.27 339.95 537.72 329.05 542.72 317.91C545.17 312.37 545.17 307.07 542.53 301.75ZM338.44 265.9C341.4 265.82 344.37 265.74 347.33 265.76C351.34 265.79 355.36 265.84 359.38 266C361.62 266.09 362.84 267.28 363.6 269.84C362.93 269.96 362.29 270.21 361.66 270.19C353 269.84 344.33 269.46 335.66 269.08C335.12 269.07 334.6 268.95 333.88 268.86C334.95 266.84 336.46 265.96 338.44 265.9ZM335.6 295.53C333.31 295.32 332.67 294.53 332.9 292.2C333.35 287.97 333.8 283.75 334.26 279.53C334.65 276.02 335.28 275.46 339.16 275.46C345.29 275.91 351.7 276.35 358.12 276.87C359.8 277 360.41 277.72 360.28 279.4C359.87 284.18 359.48 288.95 358.93 293.72C358.59 296.77 357.52 297.52 354.41 297.24C348.13 296.68 341.86 296.1 335.6 295.53ZM520.22 250.4C518.6 251.64 517.14 252.74 515.46 254.02C515.5 251.96 517.66 250.42 520.22 250.4ZM412.56 317.06C413.62 317.16 414.71 317.15 415.73 317.39C428.14 320.29 439.02 326.06 448.32 334.77C450.55 336.87 452.64 339.07 454.49 341.46C455.88 343.23 457.14 345.1 458.24 347.09C458.58 347.72 458.82 348.4 458.88 349.21C457.15 347.25 455.42 345.28 453.64 343.37C448.95 338.33 444 333.6 438.08 329.9C430 324.84 421.36 320.95 412.47 317.59C412.49 317.43 412.53 317.25 412.56 317.06ZM473.75 306.5C473.63 306.28 473.65 305.99 473.57 305.57C474.09 305.52 474.53 305.4 474.95 305.43C476.82 305.56 478.67 305.78 480.54 305.88C481.85 305.93 482.33 306.81 482.75 307.79C483.16 308.79 483.01 309.74 482.11 310.36C479.96 311.81 479.12 314.07 478.25 316.35C477.15 319.24 475.92 322.09 474.84 325.01C473.88 327.6 472.4 329.82 470.18 331.46C467.95 333.11 466.98 335.21 466.58 338.01C466.15 341.11 464.8 344.1 463.8 347.25C461.66 345.53 460.59 341 461.65 338.67C463.61 334.4 465.65 330.17 467.64 325.91C469.53 321.9 471.37 317.88 473.31 313.9C474.49 311.46 474.89 309.05 473.75 306.5ZM366.68 318.12C375.12 317.31 383.47 318.05 391.78 319.52C401.95 321.29 411.82 324.04 420.89 329.14C423.18 330.42 425.29 332.07 427.39 333.67C428.08 334.22 428.49 335.15 429.03 335.88C428.94 336.02 428.85 336.17 428.75 336.31C428.03 336.18 427.24 336.19 426.6 335.89C424.15 334.68 421.74 333.39 419.32 332.1C408.62 326.45 397.12 323.27 385.23 321.48C379.14 320.55 372.99 319.96 366.88 319.2C366.34 319.13 365.81 319.06 365.27 318.99C365.24 318.82 365.19 318.65 365.15 318.49C365.66 318.36 366.17 318.16 366.68 318.12ZM359.33 324.88C358.66 324.5 358.03 324.04 357.39 323.62C357.43 323.49 357.48 323.36 357.52 323.24C357.9 323.38 358.32 323.48 358.67 323.67C370.68 330.34 382.7 337.02 394.71 343.7C398.09 345.57 401.69 346.53 405.56 346.7C412.82 347.03 420.06 347.51 427.31 347.96C427.91 348 428.49 348.24 429.08 348.38C429.07 348.55 429.05 348.71 429.04 348.85C428.24 348.9 427.43 348.99 426.62 348.95C417.82 348.57 409 348.22 400.21 347.73C398.86 347.65 397.39 347.18 396.21 346.5C383.88 339.35 371.62 332.11 359.33 324.88ZM424.18 370.89C423.79 370.67 423.33 370.51 423 370.24C421.55 369.03 420.13 367.82 418.73 366.59C417.73 365.73 416.65 365.24 415.28 365.14C404.3 364.35 393.32 363.49 382.35 362.66C378.8 362.38 375.25 362.16 371.69 361.89C368.97 361.67 366.31 361.93 363.82 363.15C363.26 363.44 362.65 363.6 361.74 363.94C362.03 363.42 362.08 363.13 362.26 363.01C364.58 361.37 367.03 360.21 370.02 360.44C383.49 361.49 396.98 362.5 410.46 363.51C412.28 363.65 414.13 363.67 415.92 363.94C417.07 364.11 418.4 364.37 419.22 365.09C421.12 366.74 422.77 368.68 424.53 370.5C424.4 370.61 424.29 370.76 424.18 370.89ZM521.53 324.44C517.89 332.52 514.36 340.64 510.87 348.79C509.26 352.54 506.64 355.34 503.06 357.08C501.4 357.88 499.37 358.3 497.52 358.29C485.05 358.16 472.58 358.03 460.11 357.57C455.43 357.4 450.77 357.14 446.09 356.84C440.69 356.49 435.28 356.08 429.89 355.73C428.75 355.65 427.62 355.23 426.5 354.97V354.38C427 354.3 427.5 354.1 427.98 354.13C434.37 354.47 440.78 355.01 447.17 355.19C447.3 355.19 447.42 355.2 447.55 355.2C456.82 355.46 466.1 355.42 475.37 355.54C477.6 355.58 479.82 355.78 482.05 355.82C487.81 355.91 493.55 355.99 499.3 355.99C499.86 355.99 500.66 355.54 500.95 355.06C501.43 354.27 500.61 351.88 499.8 351.34C499.24 350.96 498.58 350.65 497.94 350.48C496.18 350.01 494.42 349.52 492.61 349.22C489.85 348.77 487.54 347.49 485.48 345.67C482.95 343.46 482.51 340.85 484.21 337.94C484.86 336.8 485.65 335.71 486.53 334.73C490.94 329.73 494.6 324.24 497.61 318.3C498.55 316.47 499.56 314.68 500.6 312.9C502.81 309.1 503.85 304.99 504.02 300.61C504.2 295.83 502.15 292.54 497.77 290.51C490 286.89 481.91 284.2 473.76 281.64C470.31 280.55 466.84 279.56 463.41 278.44C462.23 278.06 461.1 277.55 459.96 277.05C459.63 276.91 459.29 276.76 458.96 276.63C457.55 276.05 456.85 274.95 456.71 273.47C456.51 271.53 456.74 269.7 457.18 267.82C457.57 266.22 458.14 264.6 458.75 262.89C459.38 264.1 459.84 264.92 460.24 265.77C461.31 268.08 463.12 269.23 465.64 269.35C472.47 269.66 479.13 268.67 485.7 266.95C487.29 266.53 488.87 266.05 490.4 265.48C494.61 263.92 498.64 264.14 502.54 266.4C502.89 266.6 503.27 266.75 503.63 266.96C505.36 267.96 506.9 267.72 508.44 266.49C509.71 265.44 511.07 264.51 512.44 263.61C512.72 263.43 513.23 263.61 513.63 263.62C513.56 264.01 513.63 264.5 513.41 264.77C512.91 265.41 512.24 265.92 511.69 266.53C509.24 269.19 508.32 272.31 509.4 275.78C510.21 278.39 511.26 280.93 512.37 283.43C515.42 290.22 518.59 296.95 521.66 303.73C524.8 310.66 524.65 317.52 521.53 324.44ZM594.4 355.69C591.31 346.45 584.93 340.13 576.01 336.21C576.09 336.08 576.15 335.95 576.23 335.8C579.73 336.17 583.23 336.52 586.74 336.89C586.78 336.77 586.83 336.67 586.87 336.55C586.56 336.18 586.28 335.79 585.93 335.48C584.07 333.87 582.3 332.11 580.31 330.69C571.22 324.18 561.2 319.86 550.06 318.23C549.38 318.13 548.66 317.54 548.15 317.01C547.5 316.34 547.04 315.49 546.43 314.64C546.25 314.94 546.13 315.09 546.06 315.26C540.81 327.82 534.77 340.02 528.02 351.85C527.81 352.23 527.68 352.73 527.71 353.15C527.93 356.91 527.26 360.51 526.2 364.1C526.06 364.6 526.1 365.15 526.04 365.69C526.17 365.74 526.29 365.79 526.43 365.85C528.11 364.34 529.81 362.85 531.68 361.19C529.44 381.18 543.17 394.02 555.47 397.24C569.57 400.93 584.28 394.96 591.61 382.25C596.47 373.84 597.5 364.92 594.4 355.69ZM572.31 385.02C563.56 388.91 552.82 386.53 547.33 378.69C541.71 370.66 540.98 361.59 547.16 353.17C548.05 351.95 549.45 351.11 550.7 350.2C550.94 350.04 551.75 350.23 551.92 350.49C553.2 352.55 554.42 354.64 555.56 356.75C555.7 357.01 555.43 357.59 555.19 357.92C554.4 359.03 553.36 360 552.74 361.21C550.74 365.01 551.57 370.28 554.59 373.76C557.6 377.23 562.21 378.41 566.55 377.13C570.13 376.06 572.69 373.91 574.23 370.62C575.71 367.44 575.7 362.28 572.32 358.86C570.92 357.45 569.02 356.49 567.24 355.49C566.4 355.02 565.72 354.68 565.6 353.59C565.36 351.72 564.49 350.14 563.06 348.87C562.14 348.07 561.28 347.19 560.24 346.2C571.15 343.58 582.39 351.16 584.37 362.26C586.08 371.91 581.24 381.04 572.31 385.02ZM578.79 273.7C578.87 274.67 578.59 275.67 578.42 276.65C578.21 277.84 577.73 279.01 577.72 280.19C577.67 289.73 577.7 299.28 577.7 308.83C577.71 311.16 576.87 312 574.49 312.02C570.24 312.04 565.99 312.03 561.75 312.03C557.5 312.03 553.25 312.05 549.01 312.03C546.98 312.02 546.84 311.94 546.87 309.99C546.95 304.45 545.06 299.6 541.75 295.27C540.92 294.19 540.62 293.08 540.65 291.73C540.72 288.17 540.73 284.61 540.63 281.05C540.6 279.51 540.22 277.99 540.07 276.44C539.99 275.45 539.93 274.44 540.06 273.47C540.41 270.76 540.92 268.07 541.27 265.36C541.59 262.85 542.84 260.98 545.2 260.22C548.27 259.22 551.43 258.42 554.59 257.8C558.94 256.94 563.31 256.26 567.7 255.65C569.12 255.46 570.65 255.48 572.04 255.78C575.22 256.46 577.29 259 577.67 262.41C578.09 266.18 578.49 269.94 578.79 273.7ZM356.91 284.11C356.59 286.78 356.31 289.45 355.93 292.12C355.66 294.01 355.5 294.16 353.56 294.04C350.56 293.87 347.55 293.62 344.56 293.33C342.29 293.11 340.04 292.72 337.77 292.5C336.71 292.4 336.32 291.88 336.35 290.92C336.4 289.47 336.44 288.01 336.55 286.56C336.71 284.47 336.95 282.38 337.11 280.29C337.21 278.97 337.98 278.37 339.18 278.45C344.46 278.8 349.74 279.21 355.01 279.62C356.22 279.71 356.94 280.25 356.78 281.63C356.69 282.44 356.76 283.27 356.76 284.09C356.82 284.1 356.86 284.11 356.91 284.11Z" fill="url(#paint2_linear_27_5)"/>
<defs>
<linearGradient id="paint0_linear_27_5" x1="192.703" y1="301.238" x2="530.18" y2="301.238" gradientUnits="userSpaceOnUse">
<stop offset="1.85844e-07" stop-color="#0468BF"/>
<stop offset="1" stop-color="#023E73"/>
</linearGradient>
<linearGradient id="paint1_linear_27_5" x1="0.405424" y1="301.234" x2="164.405" y2="301.234" gradientUnits="userSpaceOnUse">
<stop offset="1.85844e-07" stop-color="#0468BF"/>
<stop offset="1" stop-color="#023E73"/>
</linearGradient>
<linearGradient id="paint2_linear_27_5" x1="291.043" y1="235.118" x2="530.853" y2="340.474" gradientUnits="userSpaceOnUse">
<stop offset="1.85844e-07" stop-color="#BF9924"/>
<stop offset="1" stop-color="#9B6610"/>
</linearGradient>
</defs>
</svg>
