<svg width="356" height="44" viewBox="0 0 356 44" fill="none" xmlns="http://www.w3.org/2000/svg">
<path d="M0.53125 3.72727H13.8011L22.929 25.9716H23.3892L32.517 3.72727H45.7869V43H35.3551V20.2955H35.0483L26.304 42.6932H20.0142L11.2699 20.142H10.9631V43H0.53125V3.72727ZM65.1069 43.5369C61.962 43.5369 59.2518 42.9361 56.9762 41.7344C54.7134 40.5199 52.9684 38.7812 51.7411 36.5185C50.5266 34.2429 49.9194 31.5199 49.9194 28.3494C49.9194 25.3068 50.533 22.6477 51.7603 20.3722C52.9876 18.0966 54.7198 16.326 56.957 15.0604C59.1942 13.7947 61.8342 13.1619 64.8768 13.1619C67.1012 13.1619 69.1147 13.5071 70.9173 14.1974C72.7198 14.8878 74.2603 15.8913 75.5387 17.2081C76.8171 18.5121 77.8015 20.0973 78.4918 21.9638C79.1822 23.8303 79.5273 25.9332 79.5273 28.2727V30.7273H53.2177V24.8977H69.7859C69.7731 24.054 69.5558 23.3125 69.1339 22.6733C68.7248 22.0213 68.1687 21.5163 67.4656 21.1584C66.7752 20.7876 65.989 20.6023 65.1069 20.6023C64.2504 20.6023 63.4641 20.7876 62.7482 21.1584C62.0323 21.5163 61.457 22.0149 61.0224 22.6541C60.6005 23.2933 60.3768 24.0412 60.3512 24.8977V31.1875C60.3512 32.1335 60.5494 32.9773 60.9457 33.7188C61.342 34.4602 61.9109 35.0419 62.6523 35.4638C63.3938 35.8857 64.2887 36.0966 65.337 36.0966C66.0657 36.0966 66.7305 35.9943 67.3313 35.7898C67.945 35.5852 68.4691 35.2912 68.9038 34.9077C69.3384 34.5114 69.658 34.0384 69.8626 33.4886H79.5273C79.195 35.5341 78.4087 37.3111 77.1687 38.8196C75.9286 40.3153 74.2859 41.4787 72.2404 42.3097C70.2077 43.1278 67.8299 43.5369 65.1069 43.5369ZM110.77 23.1335H101.029C100.977 22.5327 100.767 22.0149 100.396 21.5803C100.025 21.1456 99.5456 20.8132 98.9576 20.5831C98.3823 20.3402 97.7431 20.2188 97.04 20.2188C96.1323 20.2188 95.3525 20.3849 94.7005 20.7173C94.0485 21.0497 93.7289 21.5227 93.7417 22.1364C93.7289 22.571 93.9142 22.9737 94.2978 23.3445C94.6941 23.7152 95.4547 24.0028 96.5797 24.2074L102.563 25.2812C105.58 25.831 107.823 26.7578 109.294 28.0618C110.776 29.353 111.524 31.0852 111.537 33.2585C111.524 35.3551 110.898 37.1768 109.658 38.7237C108.431 40.2578 106.749 41.4467 104.615 42.2905C102.492 43.1214 100.07 43.5369 97.3468 43.5369C92.8468 43.5369 89.3248 42.6165 86.7807 40.7756C84.2495 38.9347 82.8368 36.5057 82.5428 33.4886H93.0513C93.1919 34.4219 93.6522 35.1442 94.432 35.6555C95.2246 36.1541 96.2218 36.4034 97.4235 36.4034C98.3951 36.4034 99.1941 36.2372 99.8205 35.9048C100.46 35.5724 100.786 35.0994 100.798 34.4858C100.786 33.9233 100.504 33.4759 99.9547 33.1435C99.4178 32.8111 98.574 32.5426 97.4235 32.3381L92.2076 31.4176C89.2033 30.8935 86.9533 29.8963 85.4576 28.4261C83.9618 26.956 83.2203 25.0639 83.2331 22.75C83.2203 20.7045 83.7573 18.9723 84.8439 17.5533C85.9434 16.1214 87.5094 15.0348 89.5421 14.2933C91.5875 13.5391 94.0101 13.1619 96.8098 13.1619C101.067 13.1619 104.423 14.044 106.877 15.8082C109.345 17.5724 110.642 20.0142 110.77 23.1335ZM129.706 43.5369C126.562 43.5369 123.851 42.9361 121.576 41.7344C119.313 40.5199 117.568 38.7812 116.341 36.5185C115.126 34.2429 114.519 31.5199 114.519 28.3494C114.519 25.3068 115.133 22.6477 116.36 20.3722C117.587 18.0966 119.319 16.326 121.557 15.0604C123.794 13.7947 126.434 13.1619 129.476 13.1619C131.701 13.1619 133.714 13.5071 135.517 14.1974C137.319 14.8878 138.86 15.8913 140.138 17.2081C141.417 18.5121 142.401 20.0973 143.091 21.9638C143.782 23.8303 144.127 25.9332 144.127 28.2727V30.7273H117.817V24.8977H134.385C134.373 24.054 134.155 23.3125 133.733 22.6733C133.324 22.0213 132.768 21.5163 132.065 21.1584C131.375 20.7876 130.589 20.6023 129.706 20.6023C128.85 20.6023 128.064 20.7876 127.348 21.1584C126.632 21.5163 126.057 22.0149 125.622 22.6541C125.2 23.2933 124.976 24.0412 124.951 24.8977V31.1875C124.951 32.1335 125.149 32.9773 125.545 33.7188C125.942 34.4602 126.51 35.0419 127.252 35.4638C127.993 35.8857 128.888 36.0966 129.937 36.0966C130.665 36.0966 131.33 35.9943 131.931 35.7898C132.545 35.5852 133.069 35.2912 133.503 34.9077C133.938 34.5114 134.258 34.0384 134.462 33.4886H144.127C143.795 35.5341 143.008 37.3111 141.768 38.8196C140.528 40.3153 138.885 41.4787 136.84 42.3097C134.807 43.1278 132.43 43.5369 129.706 43.5369ZM148.446 43V13.5455H158.495V19.1449H158.801C159.415 17.304 160.463 15.8466 161.946 14.7727C163.429 13.6989 165.194 13.1619 167.239 13.1619C169.31 13.1619 171.093 13.7116 172.589 14.8111C174.085 15.8977 174.986 17.3423 175.293 19.1449H175.6C176.098 17.3423 177.159 15.8977 178.783 14.8111C180.407 13.7116 182.311 13.1619 184.498 13.1619C187.323 13.1619 189.611 14.0696 191.363 15.8849C193.127 17.7003 194.009 20.1165 194.009 23.1335V43H183.424V25.8182C183.424 24.527 183.098 23.517 182.446 22.7884C181.794 22.0469 180.918 21.6761 179.819 21.6761C178.732 21.6761 177.869 22.0469 177.23 22.7884C176.603 23.517 176.29 24.527 176.29 25.8182V43H166.165V25.8182C166.165 24.527 165.839 23.517 165.187 22.7884C164.535 22.0469 163.659 21.6761 162.56 21.6761C161.831 21.6761 161.205 21.8423 160.681 22.1747C160.157 22.5071 159.748 22.9865 159.453 23.6129C159.172 24.2266 159.032 24.9616 159.032 25.8182V43H148.446ZM231.004 16C230.902 14.7216 230.423 13.7244 229.566 13.0085C228.722 12.2926 227.438 11.9347 225.712 11.9347C224.612 11.9347 223.711 12.0689 223.008 12.3374C222.318 12.593 221.806 12.9446 221.474 13.392C221.142 13.8395 220.969 14.3509 220.956 14.9261C220.931 15.3991 221.014 15.8274 221.205 16.2109C221.41 16.5817 221.73 16.9205 222.164 17.2273C222.599 17.5213 223.155 17.7898 223.833 18.0327C224.51 18.2756 225.316 18.4929 226.249 18.6847L229.47 19.375C231.644 19.8352 233.504 20.4425 235.051 21.1967C236.597 21.951 237.863 22.8395 238.847 23.8622C239.832 24.8722 240.554 26.0099 241.014 27.2756C241.487 28.5412 241.73 29.9219 241.743 31.4176C241.73 34 241.085 36.1861 239.806 37.9759C238.528 39.7656 236.7 41.1271 234.322 42.0604C231.957 42.9936 229.112 43.4602 225.789 43.4602C222.375 43.4602 219.396 42.9553 216.852 41.9453C214.321 40.9354 212.352 39.3821 210.946 37.2855C209.553 35.1761 208.85 32.4787 208.837 29.1932H218.962C219.026 30.3949 219.326 31.4048 219.863 32.223C220.4 33.0412 221.154 33.6612 222.126 34.0831C223.11 34.505 224.28 34.7159 225.635 34.7159C226.773 34.7159 227.725 34.5753 228.492 34.294C229.259 34.0128 229.841 33.6229 230.237 33.1243C230.634 32.6257 230.838 32.0568 230.851 31.4176C230.838 30.8168 230.64 30.2926 230.257 29.8452C229.886 29.3849 229.272 28.9759 228.416 28.6179C227.559 28.2472 226.402 27.902 224.945 27.5824L221.033 26.7386C217.556 25.9844 214.813 24.7251 212.806 22.9609C210.812 21.1839 209.821 18.7614 209.834 15.6932C209.821 13.2003 210.486 11.0206 211.828 9.15412C213.183 7.27486 215.056 5.81108 217.447 4.76278C219.85 3.71449 222.605 3.19034 225.712 3.19034C228.882 3.19034 231.624 3.72088 233.938 4.78196C236.252 5.84304 238.036 7.33878 239.289 9.26918C240.554 11.1868 241.193 13.4304 241.206 16H231.004ZM254.16 43.4602C252.28 43.4602 250.618 43.1534 249.174 42.5398C247.742 41.9134 246.617 40.9673 245.799 39.7017C244.981 38.4361 244.572 36.8253 244.572 34.8693C244.572 33.2585 244.846 31.8842 245.396 30.7464C245.946 29.5959 246.713 28.6562 247.697 27.9276C248.682 27.1989 249.826 26.6428 251.13 26.2592C252.447 25.8757 253.866 25.6264 255.387 25.5114C257.036 25.3835 258.359 25.2301 259.356 25.0511C260.366 24.8594 261.095 24.5973 261.542 24.2649C261.99 23.9197 262.214 23.4659 262.214 22.9034V22.8267C262.214 22.0597 261.92 21.4716 261.331 21.0625C260.743 20.6534 259.989 20.4489 259.069 20.4489C258.059 20.4489 257.234 20.6726 256.595 21.12C255.969 21.5547 255.591 22.2259 255.464 23.1335H245.722C245.85 21.3437 246.419 19.6946 247.429 18.1861C248.452 16.6648 249.941 15.4503 251.897 14.5426C253.853 13.6222 256.295 13.1619 259.222 13.1619C261.331 13.1619 263.224 13.4112 264.898 13.9098C266.573 14.3956 267.998 15.0795 269.175 15.9616C270.351 16.831 271.246 17.8537 271.859 19.0298C272.486 20.1932 272.799 21.4588 272.799 22.8267V43H262.904V38.858H262.674C262.086 39.9574 261.37 40.8459 260.526 41.5234C259.695 42.201 258.743 42.6932 257.669 43C256.608 43.3068 255.438 43.4602 254.16 43.4602ZM257.611 36.7869C258.417 36.7869 259.171 36.6207 259.874 36.2884C260.59 35.956 261.172 35.4766 261.619 34.8501C262.067 34.2237 262.29 33.4631 262.29 32.5682V30.1136C262.009 30.2287 261.709 30.3374 261.389 30.4396C261.082 30.5419 260.75 30.6378 260.392 30.7273C260.047 30.8168 259.676 30.8999 259.28 30.9766C258.896 31.0533 258.493 31.1236 258.072 31.1875C257.253 31.3153 256.582 31.5263 256.058 31.8203C255.547 32.1016 255.163 32.4531 254.907 32.875C254.665 33.2841 254.543 33.7443 254.543 34.2557C254.543 35.0739 254.831 35.7003 255.406 36.1349C255.981 36.5696 256.716 36.7869 257.611 36.7869ZM288.442 3.72727V43H277.857V3.72727H288.442ZM293.835 43V13.5455H304.42V43H293.835ZM299.128 10.4773C297.696 10.4773 296.469 10.0043 295.446 9.05824C294.423 8.11222 293.912 6.97443 293.912 5.64489C293.912 4.31534 294.423 3.17756 295.446 2.23153C296.469 1.28551 297.696 0.8125 299.128 0.8125C300.572 0.8125 301.8 1.28551 302.809 2.23153C303.832 3.17756 304.344 4.31534 304.344 5.64489C304.344 6.97443 303.832 8.11222 302.809 9.05824C301.8 10.0043 300.572 10.4773 299.128 10.4773ZM309.814 43V13.5455H319.862V19.1449H320.169C320.782 17.304 321.831 15.8466 323.314 14.7727C324.797 13.6989 326.561 13.1619 328.606 13.1619C330.677 13.1619 332.461 13.7116 333.956 14.8111C335.452 15.8977 336.353 17.3423 336.66 19.1449H336.967C337.466 17.3423 338.527 15.8977 340.15 14.8111C341.774 13.7116 343.679 13.1619 345.865 13.1619C348.69 13.1619 350.978 14.0696 352.73 15.8849C354.494 17.7003 355.376 20.1165 355.376 23.1335V43H344.791V25.8182C344.791 24.527 344.465 23.517 343.813 22.7884C343.161 22.0469 342.285 21.6761 341.186 21.6761C340.099 21.6761 339.236 22.0469 338.597 22.7884C337.971 23.517 337.657 24.527 337.657 25.8182V43H327.532V25.8182C327.532 24.527 327.206 23.517 326.554 22.7884C325.902 22.0469 325.027 21.6761 323.927 21.6761C323.199 21.6761 322.572 21.8423 322.048 22.1747C321.524 22.5071 321.115 22.9865 320.821 23.6129C320.539 24.2266 320.399 24.9616 320.399 25.8182V43H309.814Z" fill="#02559B" fill-opacity="0.2"/>
</svg>
